<svg xmlns="http://www.w3.org/2000/svg" xmlns:xlink="http://www.w3.org/1999/xlink" width="1080" zoomAndPan="magnify" viewBox="0 0 810 809.999993" height="1080" preserveAspectRatio="xMidYMid meet" version="1.0"><path fill="rgb(96.078491%, 96.078491%, 96.078491%)" d="M 222.289062 514.328125 C 201.828125 513.472656 182.21875 510.917969 162.605469 504.945312 C 119.125 491.300781 44.949219 461.457031 23.636719 410.289062 C -7.058594 336.101562 -1.089844 261.910156 48.359375 195.394531 C 90.992188 138.257812 148.964844 99.886719 213.761719 70.890625 C 265.769531 47.015625 319.484375 27.402344 374.902344 14.609375 C 455.894531 -4.152344 536.039062 -2.445312 612.773438 33.371094 C 665.632812 58.101562 709.113281 95.621094 743.21875 143.375 C 788.402344 205.628906 812.277344 275.554688 821.65625 351.449219 C 825.066406 383.003906 824.210938 411.996094 811.425781 440.988281 C 806.308594 451.222656 797.78125 462.308594 786.699219 471.6875 C 746.628906 507.503906 694.621094 525.414062 640.90625 523.707031 Z M 222.289062 514.328125 " fill-opacity="1" fill-rule="nonzero"/><path fill="rgb(100%, 100%, 100%)" d="M 685.242188 180.046875 C 685.242188 163.84375 671.601562 151.050781 655.402344 151.050781 C 651.136719 151.050781 647.726562 151.902344 644.316406 152.757812 C 639.203125 133.144531 621.296875 118.644531 599.984375 118.644531 C 576.964844 118.644531 558.207031 135.703125 554.796875 157.019531 C 549.679688 152.757812 543.710938 150.199219 536.039062 150.199219 C 519.839844 150.199219 507.050781 162.988281 506.199219 179.191406 L 685.242188 179.191406 Z M 685.242188 180.046875 " fill-opacity="1" fill-rule="nonzero"/><path fill="rgb(100%, 100%, 100%)" d="M 191.59375 279.816406 C 191.59375 267.027344 181.363281 257.644531 169.429688 257.644531 C 166.871094 257.644531 163.460938 258.5 160.902344 259.351562 C 156.640625 244.003906 142.996094 232.917969 126.796875 232.917969 C 108.894531 232.917969 94.402344 245.707031 91.84375 262.761719 C 88.433594 259.351562 83.316406 257.644531 77.347656 257.644531 C 64.558594 257.644531 55.183594 267.878906 55.183594 279.816406 Z M 191.59375 279.816406 " fill-opacity="1" fill-rule="nonzero"/><path fill="rgb(84.709167%, 84.709167%, 84.709167%)" d="M 467.832031 269.585938 L 446.519531 269.585938 C 441.402344 269.585938 437.992188 266.171875 437.992188 261.058594 C 437.992188 255.941406 441.402344 252.53125 446.519531 252.53125 L 467.832031 252.53125 C 472.949219 252.53125 476.359375 255.941406 476.359375 261.058594 C 476.359375 266.171875 472.949219 269.585938 467.832031 269.585938 Z M 467.832031 269.585938 " fill-opacity="1" fill-rule="nonzero"/><path fill="rgb(84.709167%, 84.709167%, 84.709167%)" d="M 407.300781 269.585938 L 368.082031 269.585938 C 362.964844 269.585938 359.554688 266.171875 359.554688 261.058594 C 359.554688 255.941406 362.964844 252.53125 368.082031 252.53125 L 407.300781 252.53125 C 412.414062 252.53125 415.824219 255.941406 415.824219 261.058594 C 415.824219 266.171875 411.5625 269.585938 407.300781 269.585938 Z M 328.007812 269.585938 L 288.789062 269.585938 C 283.675781 269.585938 280.265625 266.171875 280.265625 261.058594 C 280.265625 255.941406 283.675781 252.53125 288.789062 252.53125 L 328.007812 252.53125 C 333.125 252.53125 336.535156 255.941406 336.535156 261.058594 C 336.535156 266.171875 333.125 269.585938 328.007812 269.585938 Z M 328.007812 269.585938 " fill-opacity="1" fill-rule="nonzero"/><path fill="rgb(84.709167%, 84.709167%, 84.709167%)" d="M 228.257812 290.902344 C 223.140625 290.902344 219.730469 287.492188 219.730469 282.375 L 219.730469 261.058594 C 219.730469 255.941406 223.140625 252.53125 228.257812 252.53125 L 249.570312 252.53125 C 254.6875 252.53125 258.097656 255.941406 258.097656 261.058594 C 258.097656 266.171875 254.6875 269.585938 249.570312 269.585938 L 236.78125 269.585938 L 236.78125 282.375 C 236.78125 287.492188 233.371094 290.902344 228.257812 290.902344 Z M 228.257812 290.902344 " fill-opacity="1" fill-rule="nonzero"/><path fill="rgb(84.709167%, 84.709167%, 84.709167%)" d="M 228.257812 370.210938 C 223.140625 370.210938 219.730469 366.800781 219.730469 361.683594 L 219.730469 322.457031 C 219.730469 317.339844 223.140625 313.929688 228.257812 313.929688 C 233.371094 313.929688 236.78125 317.339844 236.78125 322.457031 L 236.78125 361.683594 C 236.78125 365.945312 233.371094 370.210938 228.257812 370.210938 Z M 228.257812 370.210938 " fill-opacity="1" fill-rule="nonzero"/><path fill="rgb(84.709167%, 84.709167%, 84.709167%)" d="M 228.257812 430.757812 C 223.140625 430.757812 219.730469 427.34375 219.730469 422.230469 L 219.730469 400.910156 C 219.730469 395.792969 223.140625 392.382812 228.257812 392.382812 C 233.371094 392.382812 236.78125 395.792969 236.78125 400.910156 L 236.78125 422.230469 C 236.78125 427.34375 233.371094 430.757812 228.257812 430.757812 Z M 228.257812 430.757812 " fill-opacity="1" fill-rule="nonzero"/><path fill="rgb(94.119263%, 94.509888%, 94.898987%)" d="M 326.304688 805.117188 C 326.304688 813.644531 319.484375 821.320312 310.105469 821.320312 L 146.410156 821.320312 C 142.144531 821.320312 137.882812 819.617188 135.324219 817.058594 C 132.765625 814.5 131.0625 810.234375 131.0625 805.972656 C 131.0625 796.589844 138.734375 788.917969 148.113281 788.917969 L 308.398438 788.917969 C 313.515625 788.917969 317.777344 790.621094 320.335938 794.03125 C 323.746094 796.589844 326.304688 800.855469 326.304688 805.117188 Z M 326.304688 805.117188 " fill-opacity="1" fill-rule="nonzero"/><path fill="rgb(94.119263%, 94.509888%, 94.898987%)" d="M 161.753906 747.984375 L 294.757812 747.984375 L 294.757812 788.0625 L 161.753906 788.0625 Z M 161.753906 747.984375 " fill-opacity="1" fill-rule="nonzero"/><path fill="rgb(84.709167%, 84.709167%, 84.709167%)" d="M 326.304688 805.117188 C 326.304688 813.644531 319.484375 821.320312 310.105469 821.320312 L 146.410156 821.320312 C 142.144531 821.320312 137.882812 819.617188 135.324219 816.203125 C 133.621094 814.5 131.914062 811.941406 131.0625 808.53125 C 133.621094 809.382812 135.324219 810.234375 138.734375 810.234375 L 302.429688 810.234375 C 310.957031 810.234375 318.628906 803.414062 318.628906 794.03125 C 318.628906 792.328125 318.628906 790.621094 317.777344 789.769531 C 319.484375 790.621094 320.335938 791.472656 321.1875 792.328125 C 323.746094 796.589844 326.304688 800.855469 326.304688 805.117188 Z M 326.304688 805.117188 " fill-opacity="1" fill-rule="nonzero"/><path fill="rgb(84.709167%, 84.709167%, 84.709167%)" d="M 279.410156 747.984375 L 294.757812 747.984375 L 294.757812 788.0625 L 279.410156 788.0625 Z M 279.410156 747.984375 " fill-opacity="1" fill-rule="nonzero"/><path fill="rgb(100%, 100%, 100%)" d="M 444.8125 447.8125 L 444.8125 688.289062 L 15.964844 688.289062 L 15.964844 447.8125 C 15.964844 434.167969 27.046875 423.082031 39.835938 423.082031 L 419.234375 423.082031 C 433.730469 423.933594 444.8125 434.167969 444.8125 447.8125 Z M 444.8125 447.8125 " fill-opacity="1" fill-rule="nonzero"/><path fill="rgb(35.289001%, 65.489197%, 96.078491%)" d="M 15.964844 688.289062 L 15.964844 723.253906 C 15.964844 736.898438 27.046875 747.132812 39.835938 747.132812 L 419.234375 747.132812 C 432.875 747.132812 443.109375 736.046875 443.109375 723.253906 L 443.109375 688.289062 Z M 15.964844 688.289062 " fill-opacity="1" fill-rule="nonzero"/><path fill="rgb(96.078491%, 95.689392%, 94.509888%)" d="M 39.835938 447.8125 L 39.835938 688.289062 L 15.964844 688.289062 L 15.964844 447.8125 C 15.964844 434.167969 27.046875 423.082031 40.6875 423.082031 L 64.558594 423.082031 C 50.917969 423.933594 39.835938 434.167969 39.835938 447.8125 Z M 39.835938 447.8125 " fill-opacity="1" fill-rule="nonzero"/><path fill="rgb(0%, 59.21936%, 92.549133%)" d="M 63.707031 747.984375 L 40.6875 747.984375 C 27.046875 747.984375 16.816406 736.898438 16.816406 724.105469 L 16.816406 689.144531 L 39.835938 689.144531 L 39.835938 723.253906 C 39.835938 736.898438 50.917969 747.984375 63.707031 747.984375 Z M 63.707031 747.984375 " fill-opacity="1" fill-rule="nonzero"/><path fill="rgb(96.078491%, 95.689392%, 94.509888%)" d="M 420.941406 447.8125 L 420.941406 688.289062 L 444.8125 688.289062 L 444.8125 447.8125 C 444.8125 434.167969 433.730469 423.082031 420.085938 423.082031 L 396.214844 423.082031 C 409.855469 423.933594 420.941406 434.167969 420.941406 447.8125 Z M 420.941406 447.8125 " fill-opacity="1" fill-rule="nonzero"/><path fill="rgb(0%, 59.21936%, 92.549133%)" d="M 397.066406 747.984375 L 420.941406 747.984375 C 434.582031 747.984375 444.8125 736.898438 444.8125 724.105469 L 444.8125 689.144531 L 420.941406 689.144531 L 420.941406 723.253906 C 420.941406 736.898438 410.710938 747.984375 397.066406 747.984375 Z M 397.066406 747.984375 " fill-opacity="1" fill-rule="nonzero"/><path fill="rgb(100%, 100%, 100%)" d="M 241.898438 719.84375 C 241.898438 720.738281 241.808594 721.625 241.636719 722.503906 C 241.460938 723.382812 241.203125 724.234375 240.859375 725.0625 C 240.515625 725.890625 240.097656 726.679688 239.597656 727.421875 C 239.101562 728.167969 238.535156 728.855469 237.902344 729.492188 C 237.269531 730.125 236.578125 730.6875 235.835938 731.1875 C 235.089844 731.683594 234.304688 732.105469 233.476562 732.449219 C 232.648438 732.789062 231.796875 733.050781 230.917969 733.222656 C 230.039062 733.398438 229.152344 733.488281 228.257812 733.488281 C 227.359375 733.488281 226.472656 733.398438 225.59375 733.222656 C 224.714844 733.050781 223.863281 732.789062 223.035156 732.449219 C 222.207031 732.105469 221.421875 731.683594 220.675781 731.1875 C 219.933594 730.6875 219.242188 730.125 218.609375 729.492188 C 217.976562 728.855469 217.410156 728.167969 216.914062 727.421875 C 216.417969 726.679688 215.996094 725.890625 215.652344 725.0625 C 215.3125 724.234375 215.050781 723.382812 214.878906 722.503906 C 214.703125 721.625 214.613281 720.738281 214.613281 719.84375 C 214.613281 718.945312 214.703125 718.058594 214.878906 717.179688 C 215.050781 716.300781 215.3125 715.449219 215.652344 714.621094 C 215.996094 713.792969 216.417969 713.007812 216.914062 712.261719 C 217.410156 711.515625 217.976562 710.828125 218.609375 710.195312 C 219.242188 709.5625 219.933594 708.996094 220.675781 708.496094 C 221.421875 708 222.207031 707.578125 223.035156 707.238281 C 223.863281 706.894531 224.714844 706.636719 225.59375 706.460938 C 226.472656 706.285156 227.359375 706.199219 228.257812 706.199219 C 229.152344 706.199219 230.039062 706.285156 230.917969 706.460938 C 231.796875 706.636719 232.648438 706.894531 233.476562 707.238281 C 234.304688 707.578125 235.089844 708 235.835938 708.496094 C 236.578125 708.996094 237.269531 709.5625 237.902344 710.195312 C 238.535156 710.828125 239.101562 711.515625 239.597656 712.261719 C 240.097656 713.007812 240.515625 713.792969 240.859375 714.621094 C 241.203125 715.449219 241.460938 716.300781 241.636719 717.179688 C 241.808594 718.058594 241.898438 718.945312 241.898438 719.84375 Z M 241.898438 719.84375 " fill-opacity="1" fill-rule="nonzero"/><path fill="rgb(94.509888%, 36.079407%, 30.979919%)" d="M 172.839844 500.683594 C 177.101562 503.242188 181.363281 506.652344 183.070312 511.769531 C 185.628906 516.03125 186.480469 522.003906 186.480469 527.972656 C 186.480469 533.941406 184.773438 539.910156 182.21875 544.171875 C 179.660156 548.4375 175.394531 552.703125 169.429688 555.257812 C 164.3125 557.816406 157.492188 559.523438 150.671875 559.523438 C 144.703125 559.523438 138.734375 558.671875 132.765625 556.113281 C 126.796875 554.40625 122.535156 550.996094 118.273438 547.585938 L 124.242188 534.792969 C 132.765625 541.617188 142.144531 545.027344 150.671875 545.027344 C 156.640625 545.027344 160.902344 543.320312 164.3125 540.761719 C 167.722656 537.351562 169.429688 533.089844 169.429688 527.972656 C 169.429688 522.855469 167.722656 518.589844 164.3125 515.179688 C 160.902344 511.769531 156.640625 510.0625 151.523438 510.0625 C 148.113281 510.0625 143.851562 510.917969 141.292969 511.769531 C 137.882812 513.472656 135.324219 515.179688 132.765625 517.738281 L 122.535156 517.738281 L 122.535156 461.457031 L 182.21875 461.457031 L 182.21875 475.953125 L 138.734375 475.953125 L 138.734375 502.386719 C 143.851562 498.976562 148.964844 497.273438 155.785156 497.273438 C 163.460938 497.273438 168.574219 498.125 172.839844 500.683594 Z M 172.839844 500.683594 " fill-opacity="1" fill-rule="nonzero"/><path fill="rgb(94.509888%, 36.079407%, 30.979919%)" d="M 206.941406 546.730469 C 200.972656 538.203125 198.414062 526.265625 198.414062 510.0625 C 198.414062 493.859375 200.972656 481.921875 206.941406 474.246094 C 212.910156 465.71875 221.4375 461.457031 233.371094 461.457031 C 244.457031 461.457031 253.832031 465.71875 259.800781 474.246094 C 265.769531 482.773438 268.328125 494.714844 268.328125 510.917969 C 268.328125 527.117188 265.769531 539.058594 259.800781 547.585938 C 253.832031 556.113281 245.308594 560.375 233.371094 560.375 C 221.4375 559.523438 212.910156 555.257812 206.941406 546.730469 Z M 246.160156 537.351562 C 248.71875 531.382812 250.421875 522.855469 250.421875 510.0625 C 250.421875 498.125 248.71875 488.746094 246.160156 483.628906 C 243.601562 477.660156 238.488281 475.101562 232.519531 475.101562 C 226.550781 475.101562 221.4375 477.660156 218.878906 483.628906 C 216.320312 489.597656 214.613281 498.125 214.613281 510.0625 C 214.613281 522.855469 216.320312 531.382812 218.878906 537.351562 C 221.4375 543.320312 226.550781 545.878906 232.519531 545.878906 C 238.488281 545.878906 243.601562 543.320312 246.160156 537.351562 Z M 246.160156 537.351562 " fill-opacity="1" fill-rule="nonzero"/><path fill="rgb(94.509888%, 36.079407%, 30.979919%)" d="M 287.085938 546.730469 C 281.117188 538.203125 278.558594 526.265625 278.558594 510.0625 C 278.558594 493.859375 281.117188 481.921875 287.085938 474.246094 C 293.054688 465.71875 301.578125 461.457031 313.515625 461.457031 C 324.597656 461.457031 333.976562 465.71875 339.945312 474.246094 C 345.914062 482.773438 348.46875 494.714844 348.46875 510.917969 C 348.46875 527.117188 345.914062 539.058594 339.945312 547.585938 C 333.976562 556.113281 325.449219 560.375 313.515625 560.375 C 302.429688 559.523438 293.054688 555.257812 287.085938 546.730469 Z M 327.15625 537.351562 C 329.714844 531.382812 331.417969 522.855469 331.417969 510.0625 C 331.417969 498.125 329.714844 488.746094 327.15625 483.628906 C 324.597656 477.660156 319.484375 475.101562 313.515625 475.101562 C 307.546875 475.101562 302.429688 477.660156 299.875 483.628906 C 297.316406 489.597656 295.609375 498.125 295.609375 510.0625 C 295.609375 522.855469 297.316406 531.382812 299.875 537.351562 C 302.429688 543.320312 307.546875 545.878906 313.515625 545.878906 C 319.484375 545.878906 323.746094 543.320312 327.15625 537.351562 Z M 327.15625 537.351562 " fill-opacity="1" fill-rule="nonzero"/><path fill="rgb(84.709167%, 84.709167%, 84.709167%)" d="M 808.011719 77.714844 L 808.011719 152.757812 C 808.011719 160.429688 802.046875 166.402344 794.371094 166.402344 L 481.472656 166.402344 C 473.800781 166.402344 467.832031 160.429688 467.832031 152.757812 L 467.832031 77.714844 C 467.832031 70.039062 473.800781 64.070312 481.472656 64.070312 L 794.371094 64.070312 C 802.046875 64.921875 808.011719 70.890625 808.011719 77.714844 Z M 808.011719 77.714844 " fill-opacity="1" fill-rule="nonzero"/><path fill="rgb(100%, 100%, 100%)" d="M 628.972656 122.910156 L 507.050781 122.910156 C 502.789062 122.910156 500.230469 119.5 500.230469 116.089844 C 500.230469 112.675781 503.640625 109.265625 507.050781 109.265625 L 628.972656 109.265625 C 633.234375 109.265625 635.792969 112.675781 635.792969 116.089844 C 635.792969 119.5 633.234375 122.910156 628.972656 122.910156 Z M 628.972656 122.910156 " fill-opacity="1" fill-rule="nonzero"/><path fill="rgb(100%, 100%, 100%)" d="M 768.792969 122.910156 L 743.21875 122.910156 C 738.953125 122.910156 736.398438 119.5 736.398438 116.089844 C 736.398438 112.675781 739.808594 109.265625 743.21875 109.265625 L 768.792969 109.265625 C 773.058594 109.265625 775.617188 112.675781 775.617188 116.089844 C 775.617188 119.5 773.058594 122.910156 768.792969 122.910156 Z M 768.792969 122.910156 " fill-opacity="1" fill-rule="nonzero"/><path fill="rgb(84.709167%, 84.709167%, 84.709167%)" d="M 808.011719 223.535156 L 808.011719 298.578125 C 808.011719 306.253906 802.046875 312.222656 794.371094 312.222656 L 481.472656 312.222656 C 473.800781 312.222656 467.832031 306.253906 467.832031 298.578125 L 467.832031 223.535156 C 467.832031 215.859375 473.800781 209.890625 481.472656 209.890625 L 794.371094 209.890625 C 802.046875 209.890625 808.011719 215.859375 808.011719 223.535156 Z M 808.011719 223.535156 " fill-opacity="1" fill-rule="nonzero"/><path fill="rgb(100%, 100%, 100%)" d="M 628.972656 268.730469 L 507.050781 268.730469 C 502.789062 268.730469 500.230469 265.320312 500.230469 261.910156 C 500.230469 257.644531 503.640625 255.089844 507.050781 255.089844 L 628.972656 255.089844 C 633.234375 255.089844 635.792969 258.5 635.792969 261.910156 C 635.792969 265.320312 633.234375 268.730469 628.972656 268.730469 Z M 628.972656 268.730469 " fill-opacity="1" fill-rule="nonzero"/><path fill="rgb(100%, 100%, 100%)" d="M 768.792969 268.730469 L 743.21875 268.730469 C 738.953125 268.730469 736.398438 265.320312 736.398438 261.910156 C 736.398438 257.644531 739.808594 255.089844 743.21875 255.089844 L 768.792969 255.089844 C 773.058594 255.089844 775.617188 258.5 775.617188 261.910156 C 775.617188 265.320312 773.058594 268.730469 768.792969 268.730469 Z M 768.792969 268.730469 " fill-opacity="1" fill-rule="nonzero"/><path fill="rgb(84.709167%, 84.709167%, 84.709167%)" d="M 808.011719 428.199219 L 808.011719 444.402344 C 808.011719 452.074219 802.046875 458.046875 794.371094 458.046875 L 481.472656 458.046875 C 473.800781 458.046875 467.832031 452.074219 467.832031 444.402344 L 467.832031 369.359375 C 467.832031 361.683594 473.800781 355.714844 481.472656 355.714844 L 794.371094 355.714844 C 802.046875 355.714844 808.011719 361.683594 808.011719 369.359375 Z M 808.011719 428.199219 " fill-opacity="1" fill-rule="nonzero"/><path fill="rgb(100%, 100%, 100%)" d="M 628.972656 413.703125 L 507.050781 413.703125 C 502.789062 413.703125 500.230469 410.289062 500.230469 406.878906 C 500.230469 402.617188 503.640625 400.058594 507.050781 400.058594 L 628.972656 400.058594 C 633.234375 400.058594 635.792969 403.46875 635.792969 406.878906 C 635.792969 411.144531 633.234375 413.703125 628.972656 413.703125 Z M 628.972656 413.703125 " fill-opacity="1" fill-rule="nonzero"/><path fill="rgb(100%, 100%, 100%)" d="M 768.792969 413.703125 L 743.21875 413.703125 C 738.953125 413.703125 736.398438 410.289062 736.398438 406.878906 C 736.398438 402.617188 739.808594 400.058594 743.21875 400.058594 L 768.792969 400.058594 C 773.058594 400.058594 775.617188 403.46875 775.617188 406.878906 C 775.617188 411.144531 773.058594 413.703125 768.792969 413.703125 Z M 768.792969 413.703125 " fill-opacity="1" fill-rule="nonzero"/><path fill="rgb(49.01886%, 51.368713%, 57.649231%)" d="M 511.3125 167.253906 L 762.828125 167.253906 L 762.828125 210.746094 L 511.3125 210.746094 Z M 511.3125 167.253906 " fill-opacity="1" fill-rule="nonzero"/><path fill="rgb(49.01886%, 51.368713%, 57.649231%)" d="M 511.3125 312.222656 L 762.828125 312.222656 L 762.828125 355.714844 L 511.3125 355.714844 Z M 511.3125 312.222656 " fill-opacity="1" fill-rule="nonzero"/><path fill="rgb(3.529358%, 17.649841%, 29.40979%)" d="M 824.210938 812.792969 L 333.125 812.792969 C 333.976562 810.234375 333.976562 807.675781 333.976562 805.117188 C 333.976562 790.621094 322.894531 779.535156 308.398438 779.535156 L 303.285156 779.535156 L 303.285156 756.511719 L 420.085938 756.511719 C 437.992188 756.511719 452.484375 742.015625 452.484375 723.253906 C 452.484375 654.179688 452.484375 519.445312 452.484375 447.8125 C 452.484375 429.902344 437.992188 414.554688 420.085938 414.554688 L 40.6875 414.554688 C 22.785156 414.554688 8.289062 429.050781 8.289062 447.8125 C 8.289062 519.445312 8.289062 654.179688 8.289062 723.253906 C 8.289062 741.160156 22.785156 756.511719 40.6875 756.511719 L 153.230469 756.511719 L 153.230469 779.535156 L 148.113281 779.535156 C 133.621094 779.535156 122.535156 791.472656 122.535156 805.117188 C 122.535156 807.675781 123.386719 810.234375 123.386719 812.792969 L 58.59375 812.792969 C 53.476562 812.792969 50.066406 816.203125 50.066406 821.320312 C 50.066406 826.4375 53.476562 829.847656 58.59375 829.847656 L 824.210938 829.847656 C 829.328125 829.847656 832.738281 826.4375 832.738281 821.320312 C 832.738281 816.203125 829.328125 812.792969 824.210938 812.792969 Z M 24.488281 447.8125 C 24.488281 439.285156 31.308594 431.609375 39.835938 431.609375 L 419.234375 431.609375 C 427.761719 431.609375 434.582031 438.429688 434.582031 447.8125 L 434.582031 679.761719 L 24.488281 679.761719 Z M 24.488281 723.253906 L 24.488281 696.816406 L 435.433594 696.816406 L 435.433594 723.253906 C 435.433594 731.78125 428.613281 739.457031 420.085938 739.457031 C 293.054688 739.457031 166.871094 739.457031 40.6875 739.457031 C 32.160156 739.457031 24.488281 732.632812 24.488281 723.253906 Z M 170.28125 756.511719 L 286.230469 756.511719 L 286.230469 779.535156 L 170.28125 779.535156 Z M 148.113281 796.589844 C 287.085938 796.589844 73.9375 796.589844 308.398438 796.589844 C 310.957031 796.589844 312.664062 797.445312 314.367188 799.148438 C 316.074219 800.855469 316.925781 802.558594 316.925781 805.117188 C 316.925781 809.382812 313.515625 812.792969 309.25 812.792969 L 146.410156 812.792969 C 142.144531 812.792969 138.734375 809.382812 138.734375 805.117188 C 138.734375 800.855469 142.996094 796.589844 148.113281 796.589844 Z M 148.113281 796.589844 " fill-opacity="1" fill-rule="nonzero"/><path fill="rgb(3.529358%, 17.649841%, 29.40979%)" d="M 125.09375 652.472656 L 169.429688 652.472656 L 169.429688 642.242188 L 137.03125 642.242188 L 137.03125 622.628906 L 167.722656 622.628906 L 167.722656 613.246094 L 137.03125 613.246094 L 137.03125 595.339844 L 169.429688 595.339844 L 169.429688 585.105469 L 125.09375 585.105469 Z M 125.09375 652.472656 " fill-opacity="1" fill-rule="nonzero"/><path fill="rgb(3.529358%, 17.649841%, 29.40979%)" d="M 196.710938 606.425781 C 194.152344 608.128906 192.449219 610.6875 190.742188 613.246094 L 189.890625 604.71875 L 178.804688 604.71875 C 179.660156 608.984375 179.660156 613.246094 179.660156 618.363281 L 179.660156 652.472656 L 191.59375 652.472656 L 191.59375 626.890625 C 191.59375 623.480469 192.449219 620.070312 195.003906 617.511719 C 196.710938 614.953125 200.121094 614.101562 204.382812 614.101562 C 206.089844 614.101562 208.648438 614.101562 210.351562 614.953125 L 210.351562 603.867188 C 208.648438 603.867188 206.941406 603.867188 205.238281 603.867188 C 202.679688 603.867188 199.269531 604.71875 196.710938 606.425781 Z M 196.710938 606.425781 " fill-opacity="1" fill-rule="nonzero"/><path fill="rgb(3.529358%, 17.649841%, 29.40979%)" d="M 233.371094 606.425781 C 230.8125 608.128906 229.109375 610.6875 227.402344 613.246094 L 226.550781 604.71875 L 215.46875 604.71875 C 216.320312 608.984375 216.320312 613.246094 216.320312 618.363281 L 216.320312 652.472656 L 228.257812 652.472656 L 228.257812 626.890625 C 228.257812 623.480469 229.109375 620.070312 231.667969 617.511719 C 233.371094 614.953125 236.78125 614.101562 241.046875 614.101562 C 242.75 614.101562 245.308594 614.101562 247.011719 614.953125 L 247.011719 603.867188 C 245.308594 603.867188 244.457031 603.867188 242.75 603.867188 C 239.339844 603.867188 235.929688 604.71875 233.371094 606.425781 Z M 233.371094 606.425781 " fill-opacity="1" fill-rule="nonzero"/><path fill="rgb(3.529358%, 17.649841%, 29.40979%)" d="M 287.085938 606.425781 C 282.820312 604.71875 278.558594 603.867188 274.296875 603.867188 C 269.179688 603.867188 264.917969 604.71875 261.507812 607.277344 C 258.097656 608.984375 254.6875 612.394531 252.980469 615.804688 C 251.277344 619.214844 250.421875 623.480469 250.421875 628.597656 C 250.421875 633.714844 251.277344 637.976562 252.980469 641.386719 C 254.6875 644.800781 258.097656 648.210938 261.507812 649.917969 C 264.917969 651.621094 269.179688 653.328125 274.296875 653.328125 C 279.410156 653.328125 282.820312 652.472656 287.085938 649.917969 C 291.347656 647.359375 293.90625 644.800781 295.609375 641.386719 C 297.316406 637.976562 298.167969 633.714844 298.167969 628.597656 C 298.167969 623.480469 297.316406 619.214844 295.609375 615.804688 C 293.054688 611.542969 290.496094 608.984375 287.085938 606.425781 Z M 282.820312 639.683594 C 281.117188 642.242188 277.707031 643.945312 273.441406 643.945312 C 269.179688 643.945312 266.621094 642.242188 264.066406 639.683594 C 262.359375 637.125 260.65625 632.859375 260.65625 627.746094 C 260.65625 622.628906 261.507812 619.214844 264.066406 615.804688 C 265.769531 613.246094 269.179688 611.542969 273.441406 611.542969 C 277.707031 611.542969 280.265625 613.246094 282.820312 615.804688 C 285.378906 618.363281 286.230469 622.628906 286.230469 627.746094 C 286.230469 633.714844 285.378906 637.125 282.820312 639.683594 Z M 282.820312 639.683594 " fill-opacity="1" fill-rule="nonzero"/><path fill="rgb(3.529358%, 17.649841%, 29.40979%)" d="M 325.449219 606.425781 C 322.894531 608.128906 321.1875 610.6875 319.484375 613.246094 L 318.628906 604.71875 L 307.546875 604.71875 C 308.398438 608.984375 308.398438 613.246094 308.398438 618.363281 L 308.398438 652.472656 L 320.335938 652.472656 L 320.335938 626.890625 C 320.335938 623.480469 321.1875 620.070312 323.746094 617.511719 C 325.449219 614.953125 328.859375 614.101562 333.125 614.101562 C 334.828125 614.101562 337.386719 614.101562 339.09375 614.953125 L 339.09375 603.867188 C 337.386719 603.867188 335.683594 603.867188 333.976562 603.867188 C 330.566406 603.867188 328.007812 604.71875 325.449219 606.425781 Z M 325.449219 606.425781 " fill-opacity="1" fill-rule="nonzero"/><path fill="rgb(3.529358%, 17.649841%, 29.40979%)" d="M 481.472656 466.574219 L 794.371094 466.574219 C 806.308594 466.574219 816.539062 456.339844 816.539062 444.402344 L 816.539062 369.359375 C 816.539062 357.417969 806.308594 347.1875 794.371094 347.1875 L 771.351562 347.1875 L 771.351562 320.75 L 794.371094 320.75 C 806.308594 320.75 816.539062 310.515625 816.539062 298.578125 L 816.539062 223.535156 C 816.539062 211.597656 806.308594 201.363281 794.371094 201.363281 L 771.351562 201.363281 L 771.351562 174.929688 L 794.371094 174.929688 C 806.308594 174.929688 816.539062 164.695312 816.539062 152.757812 L 816.539062 77.714844 C 816.539062 65.773438 806.308594 55.542969 794.371094 55.542969 L 481.472656 55.542969 C 469.539062 55.542969 459.308594 65.773438 459.308594 77.714844 L 459.308594 152.757812 C 459.308594 164.695312 469.539062 174.929688 481.472656 174.929688 L 502.789062 174.929688 L 502.789062 201.363281 L 481.472656 201.363281 C 469.539062 201.363281 459.308594 211.597656 459.308594 223.535156 L 459.308594 298.578125 C 459.308594 310.515625 469.539062 320.75 481.472656 320.75 L 502.789062 320.75 L 502.789062 347.1875 L 481.472656 347.1875 C 469.539062 347.1875 459.308594 357.417969 459.308594 369.359375 L 459.308594 444.402344 C 459.308594 456.339844 469.539062 466.574219 481.472656 466.574219 Z M 476.359375 153.609375 L 476.359375 78.566406 C 476.359375 76.007812 478.917969 73.449219 481.472656 73.449219 L 794.371094 73.449219 C 796.929688 73.449219 799.488281 76.007812 799.488281 78.566406 L 799.488281 153.609375 C 799.488281 156.167969 796.929688 158.726562 794.371094 158.726562 C 725.3125 158.726562 550.53125 158.726562 481.472656 158.726562 C 478.917969 158.726562 476.359375 156.167969 476.359375 153.609375 Z M 519.839844 175.78125 L 754.300781 175.78125 L 754.300781 202.214844 L 519.839844 202.214844 Z M 476.359375 298.578125 L 476.359375 223.535156 C 476.359375 220.976562 478.917969 218.417969 481.472656 218.417969 C 599.128906 218.417969 677.566406 218.417969 794.371094 218.417969 C 796.929688 218.417969 799.488281 220.976562 799.488281 223.535156 L 799.488281 298.578125 C 799.488281 301.136719 796.929688 303.695312 794.371094 303.695312 C 676.714844 303.695312 599.128906 303.695312 481.472656 303.695312 C 478.917969 303.695312 476.359375 301.988281 476.359375 298.578125 Z M 519.839844 320.75 L 754.300781 320.75 L 754.300781 347.1875 L 519.839844 347.1875 Z M 476.359375 369.359375 C 476.359375 366.800781 478.917969 364.242188 481.472656 364.242188 C 599.128906 364.242188 677.566406 364.242188 794.371094 364.242188 C 796.929688 364.242188 799.488281 366.800781 799.488281 369.359375 L 799.488281 444.402344 C 799.488281 446.960938 796.929688 449.515625 794.371094 449.515625 L 481.472656 449.515625 C 478.917969 449.515625 476.359375 446.960938 476.359375 444.402344 Z M 476.359375 369.359375 " fill-opacity="1" fill-rule="nonzero"/></svg>