<svg xmlns="http://www.w3.org/2000/svg" width="30" viewBox="0 0 30 30" height="30" version="1.0"><defs><clipPath id="a"><path d="M 5.628906 0 L 24.5 0 L 24.5 29.03125 L 5.628906 29.03125 Z M 5.628906 0"/></clipPath></defs><g clip-path="url(#a)"><path fill="#43AFFF" d="M 15.113281 0 C 9.933594 0 5.71875 4.183594 5.71875 9.324219 C 5.71875 18.140625 13.671875 28.085938 14.007812 28.507812 C 14.277344 28.839844 14.683594 29.03125 15.113281 29.03125 C 15.542969 29.03125 15.949219 28.839844 16.214844 28.507812 C 16.554688 28.085938 24.507812 18.140625 24.507812 9.324219 C 24.507812 4.183594 20.292969 0 15.113281 0 Z M 15.113281 25.265625 C 12.988281 22.28125 8.550781 15.320312 8.550781 9.324219 C 8.550781 5.734375 11.496094 2.808594 15.113281 2.808594 C 18.730469 2.808594 21.675781 5.734375 21.675781 9.324219 C 21.675781 15.308594 17.234375 22.277344 15.113281 25.265625 Z M 15.113281 25.265625"/></g><path fill="#43AFFF" d="M 15.113281 4.125 C 12.226562 4.125 9.875 6.457031 9.875 9.324219 C 9.875 12.191406 12.226562 14.523438 15.113281 14.523438 C 18 14.523438 20.347656 12.191406 20.347656 9.324219 C 20.347656 6.457031 18 4.125 15.113281 4.125 Z M 15.113281 11.714844 C 13.785156 11.714844 12.707031 10.644531 12.707031 9.324219 C 12.707031 8.007812 13.785156 6.9375 15.113281 6.9375 C 16.441406 6.9375 17.519531 8.007812 17.519531 9.324219 C 17.519531 10.644531 16.441406 11.714844 15.113281 11.714844 Z M 15.113281 11.714844"/></svg>