<svg xmlns="http://www.w3.org/2000/svg" xmlns:xlink="http://www.w3.org/1999/xlink" width="79.5" zoomAndPan="magnify" viewBox="0 0 79.5 79.499998" height="79.499998" preserveAspectRatio="xMidYMid meet" version="1.0"><defs><clipPath id="id1"><path d="M 0 0 L 79.003906 0 L 79.003906 79.003906 L 0 79.003906 Z M 0 0 " clip-rule="nonzero"/></clipPath></defs><g clip-path="url(#id1)"><path fill="rgb(82.348633%, 82.348633%, 85.879517%)" d="M 70.816406 16.5625 C 68.496094 16.5625 66.316406 17.46875 64.675781 19.105469 L 62.9375 20.84375 L 62.9375 8.28125 C 62.9375 5.542969 60.707031 3.3125 57.96875 3.3125 L 53 3.3125 L 53 1.65625 C 53 0.742188 52.257812 0 51.34375 0 C 50.429688 0 49.6875 0.742188 49.6875 1.65625 L 49.6875 3.3125 L 39.75 3.3125 L 39.75 1.65625 C 39.75 0.742188 39.007812 0 38.09375 0 C 37.179688 0 36.4375 0.742188 36.4375 1.65625 L 36.4375 3.3125 L 26.5 3.3125 L 26.5 1.65625 C 26.5 0.742188 25.757812 0 24.84375 0 C 23.929688 0 23.1875 0.742188 23.1875 1.65625 L 23.1875 3.3125 L 13.25 3.3125 L 13.25 1.65625 C 13.25 0.742188 12.507812 0 11.59375 0 C 10.679688 0 9.9375 0.742188 9.9375 1.65625 L 9.9375 3.3125 L 4.96875 3.3125 C 2.230469 3.3125 0 5.542969 0 8.28125 L 0 74.53125 C 0 77.269531 2.230469 79.5 4.96875 79.5 L 57.96875 79.5 C 60.707031 79.5 62.9375 77.269531 62.9375 74.53125 L 62.9375 45.402344 L 72.378906 35.960938 C 72.382812 35.957031 72.382812 35.957031 72.386719 35.953125 C 72.390625 35.949219 72.390625 35.945312 72.394531 35.945312 L 76.957031 31.382812 C 78.597656 29.742188 79.5 27.5625 79.5 25.242188 C 79.5 20.453125 75.605469 16.5625 70.816406 16.5625 Z M 51.34375 13.25 C 52.257812 13.25 53 13.992188 53 14.90625 C 53 15.820312 52.257812 16.5625 51.34375 16.5625 C 50.429688 16.5625 49.6875 15.820312 49.6875 14.90625 C 49.6875 13.992188 50.429688 13.25 51.34375 13.25 Z M 38.09375 13.25 C 39.007812 13.25 39.75 13.992188 39.75 14.90625 C 39.75 15.820312 39.007812 16.5625 38.09375 16.5625 C 37.179688 16.5625 36.4375 15.820312 36.4375 14.90625 C 36.4375 13.992188 37.179688 13.25 38.09375 13.25 Z M 24.84375 13.25 C 25.757812 13.25 26.5 13.992188 26.5 14.90625 C 26.5 15.820312 25.757812 16.5625 24.84375 16.5625 C 23.929688 16.5625 23.1875 15.820312 23.1875 14.90625 C 23.1875 13.992188 23.929688 13.25 24.84375 13.25 Z M 11.59375 13.25 C 12.507812 13.25 13.25 13.992188 13.25 14.90625 C 13.25 15.820312 12.507812 16.5625 11.59375 16.5625 C 10.679688 16.5625 9.9375 15.820312 9.9375 14.90625 C 9.9375 13.992188 10.679688 13.25 11.59375 13.25 Z M 59.625 74.53125 C 59.625 75.445312 58.882812 76.1875 57.96875 76.1875 L 4.96875 76.1875 C 4.054688 76.1875 3.3125 75.445312 3.3125 74.53125 L 3.3125 8.28125 C 3.3125 7.367188 4.054688 6.625 4.96875 6.625 L 9.9375 6.625 L 9.9375 10.242188 C 8.011719 10.929688 6.625 12.75 6.625 14.90625 C 6.625 17.644531 8.855469 19.875 11.59375 19.875 C 14.332031 19.875 16.5625 17.644531 16.5625 14.90625 C 16.5625 12.75 15.175781 10.929688 13.25 10.242188 L 13.25 6.625 L 23.1875 6.625 L 23.1875 10.242188 C 21.261719 10.929688 19.875 12.75 19.875 14.90625 C 19.875 17.644531 22.105469 19.875 24.84375 19.875 C 27.582031 19.875 29.8125 17.644531 29.8125 14.90625 C 29.8125 12.75 28.425781 10.929688 26.5 10.242188 L 26.5 6.625 L 36.4375 6.625 L 36.4375 10.242188 C 34.511719 10.929688 33.125 12.75 33.125 14.90625 C 33.125 17.644531 35.355469 19.875 38.09375 19.875 C 40.832031 19.875 43.0625 17.644531 43.0625 14.90625 C 43.0625 12.75 41.675781 10.929688 39.75 10.242188 L 39.75 6.625 L 49.6875 6.625 L 49.6875 10.242188 C 47.761719 10.929688 46.375 12.75 46.375 14.90625 C 46.375 17.644531 48.605469 19.875 51.34375 19.875 C 54.082031 19.875 56.3125 17.644531 56.3125 14.90625 C 56.3125 12.75 54.925781 10.929688 53 10.242188 L 53 6.625 L 57.96875 6.625 C 58.882812 6.625 59.625 7.367188 59.625 8.28125 L 59.625 24.15625 L 33.65625 50.128906 C 33.636719 50.140625 33.625 50.15625 33.609375 50.175781 C 33.425781 50.355469 33.308594 50.589844 33.230469 50.84375 C 33.21875 50.878906 33.183594 50.902344 33.175781 50.941406 L 29.863281 64.191406 C 29.71875 64.757812 29.886719 65.351562 30.296875 65.761719 C 30.609375 66.078125 31.035156 66.25 31.46875 66.25 C 31.605469 66.25 31.738281 66.234375 31.871094 66.195312 L 45.121094 62.882812 C 45.160156 62.875 45.1875 62.839844 45.222656 62.824219 C 45.429688 62.753906 45.621094 62.648438 45.78125 62.511719 C 45.8125 62.484375 45.859375 62.480469 45.886719 62.449219 L 59.625 48.714844 Z M 36.011719 53.253906 C 37.082031 53.566406 38.667969 54.253906 40.234375 55.824219 C 41.804688 57.394531 42.496094 58.980469 42.808594 60.050781 L 33.746094 62.316406 Z M 45.597656 58.058594 C 45.054688 56.695312 44.160156 55.066406 42.570312 53.484375 C 40.992188 51.902344 39.367188 51.003906 38.003906 50.464844 L 61.28125 27.1875 L 68.875 34.78125 Z M 74.613281 29.039062 L 71.214844 32.4375 L 63.625 24.847656 L 67.023438 21.445312 C 68.035156 20.429688 69.382812 19.871094 70.820312 19.871094 C 73.78125 19.871094 76.1875 22.28125 76.1875 25.246094 C 76.1875 26.679688 75.628906 28.027344 74.613281 29.039062 Z M 74.613281 29.039062 " fill-opacity="1" fill-rule="nonzero"/></g></svg>