<svg xmlns="http://www.w3.org/2000/svg" width="30" viewBox="0 0 30 30" height="30" version="1.0"><defs><clipPath id="a"><path d="M 2.679688 0 L 27.355469 0 L 27.355469 29.03125 L 2.679688 29.03125 Z M 2.679688 0"/></clipPath></defs><g clip-path="url(#a)"><path fill="#FFF" d="M 14.242188 29.03125 L 10.988281 24.789062 L 14.359375 16.257812 L 15.71875 16.257812 L 19.089844 24.789062 L 15.835938 29.03125 C 19.015625 29.003906 22.1875 28.804688 25.34375 28.441406 C 26.5 28.308594 27.328125 27.261719 27.195312 26.109375 C 27.1875 26.046875 27.175781 25.988281 27.164062 25.925781 L 25.914062 19.902344 C 25.757812 19.15625 25.210938 18.550781 24.480469 18.320312 L 18.707031 16.511719 C 18.417969 16.421875 18.21875 16.148438 18.21875 15.84375 L 18.21875 13.207031 C 21.378906 11.453125 22.515625 7.476562 20.765625 4.320312 C 19.007812 1.164062 15.023438 0.0273438 11.863281 1.777344 C 8.699219 3.53125 7.5625 7.507812 9.316406 10.664062 C 9.910156 11.730469 10.792969 12.613281 11.863281 13.207031 L 11.863281 15.84375 C 11.863281 16.148438 11.664062 16.421875 11.371094 16.511719 L 5.597656 18.320312 C 4.867188 18.550781 4.320312 19.15625 4.164062 19.902344 L 2.917969 25.925781 C 2.679688 27.0625 3.410156 28.175781 4.554688 28.410156 C 4.613281 28.425781 4.675781 28.433594 4.734375 28.441406 C 7.890625 28.804688 11.066406 29.003906 14.242188 29.03125"/></g></svg>